<svg width="26" height="26" viewBox="0 0 26 26" fill="none" xmlns="http://www.w3.org/2000/svg">
<path d="M21.1666 0.166672H4.83329C4.55373 0.169891 4.28462 0.273394 4.07496 0.458338C4.90695 0.751056 5.63896 1.27356 6.18615 1.96528C6.73334 2.65701 7.07329 3.48964 7.16663 4.36667C7.18446 4.52172 7.18446 4.67829 7.16663 4.83334V24.6667C7.16607 24.8898 7.22953 25.1084 7.34946 25.2966C7.4694 25.4848 7.64078 25.6346 7.84329 25.7283C8.04628 25.8218 8.27183 25.855 8.49313 25.8239C8.71443 25.7929 8.92216 25.699 9.09163 25.5533L12.4166 22.7067L15.7416 25.5533C15.9529 25.7341 16.2219 25.8334 16.5 25.8334C16.778 25.8334 17.047 25.7341 17.2583 25.5533L20.5833 22.7067L23.9083 25.5533C24.1196 25.7341 24.3886 25.8334 24.6666 25.8333C24.8354 25.8321 25.0022 25.7964 25.1566 25.7283C25.3591 25.6346 25.5305 25.4848 25.6505 25.2966C25.7704 25.1084 25.8338 24.8898 25.8333 24.6667V4.83334C25.8333 3.59566 25.3416 2.40868 24.4665 1.53351C23.5913 0.658337 22.4043 0.166672 21.1666 0.166672ZM20 16.5H13C12.6905 16.5 12.3938 16.3771 12.175 16.1583C11.9562 15.9395 11.8333 15.6428 11.8333 15.3333C11.8333 15.0239 11.9562 14.7272 12.175 14.5084C12.3938 14.2896 12.6905 14.1667 13 14.1667H20C20.3094 14.1667 20.6061 14.2896 20.8249 14.5084C21.0437 14.7272 21.1666 15.0239 21.1666 15.3333C21.1666 15.6428 21.0437 15.9395 20.8249 16.1583C20.6061 16.3771 20.3094 16.5 20 16.5ZM20 11.8333H13C12.6905 11.8333 12.3938 11.7104 12.175 11.4916C11.9562 11.2728 11.8333 10.9761 11.8333 10.6667C11.8333 10.3573 11.9562 10.0605 12.175 9.84171C12.3938 9.62292 12.6905 9.50001 13 9.50001H20C20.3094 9.50001 20.6061 9.62292 20.8249 9.84171C21.0437 10.0605 21.1666 10.3573 21.1666 10.6667C21.1666 10.9761 21.0437 11.2728 20.8249 11.4916C20.6061 11.7104 20.3094 11.8333 20 11.8333ZM20 7.16667H13C12.6905 7.16667 12.3938 7.04376 12.175 6.82496C11.9562 6.60617 11.8333 6.30942 11.8333 6.00001C11.8333 5.69059 11.9562 5.39384 12.175 5.17505C12.3938 4.95626 12.6905 4.83334 13 4.83334H20C20.3094 4.83334 20.6061 4.95626 20.8249 5.17505C21.0437 5.39384 21.1666 5.69059 21.1666 6.00001C21.1666 6.30942 21.0437 6.60617 20.8249 6.82496C20.6061 7.04376 20.3094 7.16667 20 7.16667ZM4.83329 4.83334V14.1667H1.33329C1.02387 14.1667 0.727127 14.0438 0.508335 13.825C0.289542 13.6062 0.166626 13.3094 0.166626 13V4.83334C0.166626 4.67001 0.166626 4.51834 0.166626 4.36667C0.22851 3.74783 0.533692 3.17892 1.01504 2.7851C1.49638 2.39127 2.11445 2.20479 2.73329 2.26667C3.35213 2.32856 3.92104 2.63374 4.31487 3.11508C4.70869 3.59642 4.89518 4.2145 4.83329 4.83334Z" fill="#7879F1"/>
</svg>
